<svg width="150" height="39" viewBox="0 0 150 39" fill="none" xmlns="http://www.w3.org/2000/svg">
<path fill-rule="evenodd" clip-rule="evenodd" d="M23.64 36.4541V36.7688C23.64 37.2234 23.6058 37.7461 21.3685 38.0062C19.1312 38.2663 9.53982 38.1186 7.63002 37.7846C7.15709 37.7019 6.73268 37.6511 6.35727 37.6062C5.21671 37.4697 4.52849 37.3873 4.3062 36.6289C4.13822 36.0558 4.38253 35.3923 4.80374 34.2482C4.99885 33.7183 5.23191 33.0852 5.47954 32.3103C8.33991 23.3468 10.0094 18.5777 10.4881 17.4121C10.9785 16.2464 11.4805 15.3431 11.9942 14.702C12.5079 14.0493 13.1792 13.7229 14.0081 13.7229C14.8487 13.7229 15.5492 14.0434 16.1096 14.6845C16.67 15.314 17.3939 16.7069 18.2812 18.8632C19.974 22.9545 21.375 27.0709 22.4841 31.8033C22.6009 32.2929 22.8227 33.103 23.1496 34.2336C23.4765 35.3642 23.64 36.1044 23.64 36.4541ZM17.2368 27.9218V27.7994C17.2368 27.7295 17.1609 27.3681 17.0091 26.7154C16.869 26.051 16.7639 25.6022 16.6939 25.3691C16.6355 25.136 16.4312 24.2559 16.0809 22.729C15.7424 21.1904 15.3629 19.9723 14.9426 19.0748C14.5223 18.1656 14.2713 17.711 14.1896 17.711C14.1196 17.711 13.8802 18.1714 13.4716 19.0923C11.4635 23.6731 10.4594 26.6279 10.4594 27.9567V28.0616C10.4594 28.388 10.9965 28.5512 12.0706 28.5512H12.8236L12.9812 28.5337L14.5048 28.5512H15.2579L15.398 28.5337H15.6782L16.2386 28.4988C16.904 28.4988 17.2368 28.3064 17.2368 27.9218Z" fill="white"/>
<path d="M11.1238 0.750797L11.1238 0.628568C11.1238 0.244421 11.4603 0.0523476 12.1332 0.0523476L12.6998 0.017426L12.9832 0.0174261L13.1248 -3.66638e-05L13.8863 -3.65972e-05L15.4269 0.0174263L15.5863 -3.64486e-05L16.3478 -3.63821e-05C17.4339 -3.62871e-05 17.9769 0.162936 17.9769 0.488879L17.9769 0.593647C17.9769 1.9207 16.9617 4.87165 14.9311 9.44649C14.5179 10.3661 14.2759 10.8259 14.205 10.8259C14.1224 10.8259 13.8686 10.3719 13.4436 9.46395C13.0186 8.56761 12.6349 7.35114 12.2925 5.81455C11.9384 4.28961 11.7318 3.41072 11.6728 3.17791C11.6019 2.94509 11.4957 2.49692 11.354 1.83339C11.2005 1.18151 11.1238 0.820642 11.1238 0.750797Z" fill="#F4BF4A"/>
<path d="M0.750796 17.3809L0.628567 17.3809C0.244421 17.3809 0.0523469 17.0396 0.0523469 16.3569L0.0174253 15.782L0.0174253 15.4946L-3.74085e-05 15.3509L-3.73747e-05 14.5784L0.0174254 13.0154L-3.72993e-05 12.8537L-3.72655e-05 12.0812C-3.72174e-05 10.9794 0.162935 10.4285 0.488878 10.4285L0.593645 10.4285C1.9207 10.4285 4.87165 11.4585 9.44649 13.5184C10.3661 13.9376 10.8259 14.1832 10.8259 14.255C10.8259 14.3388 10.3719 14.5963 9.46395 15.0275C8.56761 15.4587 7.35114 15.8479 5.81455 16.1952C4.28961 16.5545 3.41072 16.7641 3.17791 16.824C2.94509 16.8959 2.49692 17.0037 1.83339 17.1474C1.18151 17.3031 0.820641 17.3809 0.750796 17.3809Z" fill="#69C480"/>
<path d="M27.7684 11.0246L27.8884 11.0246C28.2655 11.0246 28.4541 11.3659 28.4541 12.0486L28.4884 12.6235L28.4884 12.9109L28.5055 13.0546L28.5055 13.8271L28.4884 15.3901L28.5055 15.5518L28.5055 16.3243C28.5055 17.4261 28.3455 17.9771 28.0256 17.9771L27.9227 17.9771C26.62 17.9771 23.7232 16.9471 19.2323 14.8871C18.3296 14.4679 17.8782 14.2224 17.8782 14.1505C17.8782 14.0667 18.3238 13.8092 19.2152 13.378C20.0951 12.9469 21.2892 12.5576 22.7976 12.2103C24.2946 11.851 25.1573 11.6414 25.3859 11.5815C25.6144 11.5097 26.0544 11.4019 26.7057 11.2581C27.3456 11.1024 27.6999 11.0246 27.7684 11.0246Z" fill="#A578E1"/>
<path d="M105.932 34.2114C105.932 34.761 105.672 35.0358 105.153 35.0358C104.982 35.0358 104.765 34.8965 104.501 34.6178C104.245 34.3391 104.063 33.9133 103.954 33.3404C103.845 32.7675 103.721 31.1573 103.582 28.5096C103.45 25.8543 103.279 24.5266 103.07 24.5266C102.868 24.5266 102.224 25.7459 101.138 28.1845C100.06 30.6231 99.4313 31.974 99.2529 32.2372C98.9038 32.7482 98.5198 33.0037 98.1009 33.0037C97.6819 33.0037 97.3484 32.7946 97.1001 32.3766C96.8519 31.9585 96.5183 31.1999 96.0994 30.1005C94.6875 26.4078 93.8302 24.5614 93.5277 24.5614C93.3493 24.5614 93.07 26.0168 92.6899 28.9277C92.3175 31.8308 92.1236 33.3172 92.108 33.3869C91.8675 34.3081 91.5572 34.7688 91.1771 34.7688C90.6806 34.7688 90.4324 34.4939 90.4324 33.9443C90.4324 33.7662 90.4712 33.1585 90.5487 32.1211C90.6341 31.076 90.6884 30.2128 90.7117 29.5315C90.7349 28.8425 90.7737 27.9406 90.828 26.8258C90.8901 25.7033 90.9211 24.1395 90.9211 22.1344C90.9211 21.577 91.0181 21.1318 91.212 20.799C91.4835 20.3267 91.8792 20.0906 92.3989 20.0906C92.9187 20.0906 93.4191 20.4351 93.9001 21.1241C94.3888 21.8054 95.1995 23.2569 96.3321 25.4788C97.4725 27.6929 98.0892 28.7999 98.1823 28.7999C98.2832 28.7999 98.8727 27.7742 99.9511 25.7226C101.037 23.6634 101.759 22.355 102.115 21.7976C102.852 20.6519 103.52 20.079 104.117 20.079C104.854 20.079 105.331 20.3887 105.548 21.008C105.765 21.6196 105.874 23.2995 105.874 26.0478L105.793 30.6579C105.793 31.525 105.816 32.2876 105.862 32.9456C105.909 33.5959 105.932 34.0178 105.932 34.2114Z" fill="white"/>
<path d="M111.448 27.4413V28.2077C111.448 29.0903 111.549 29.9031 111.751 30.6463C112.138 32.0553 112.794 33.023 113.717 33.5494C114.26 33.8669 114.85 34.0256 115.486 34.0256H115.847C116.467 34.0256 117.026 33.863 117.522 33.5378C119.012 32.5701 119.76 30.6386 119.768 27.7432V26.9768C119.768 25.2581 119.427 23.853 118.744 22.7615C118.442 22.2737 118.046 21.8828 117.557 21.5886C117.076 21.2944 116.576 21.1473 116.056 21.1473H115.521C114.916 21.1473 114.349 21.3176 113.822 21.6583C113.294 21.9989 112.879 22.3976 112.577 22.8544C112.274 23.3111 112.01 23.9459 111.785 24.7588C111.56 25.5639 111.448 26.4581 111.448 27.4413ZM122.351 26.9303V27.72C122.351 28.9199 122.204 30.058 121.909 31.1341C121.614 32.2024 121.188 33.0695 120.629 33.7352C120.071 34.3933 119.372 34.9313 118.535 35.3494C117.705 35.7674 116.855 35.9765 115.986 35.9765H115.207C114.384 35.9687 113.577 35.7868 112.786 35.4307C111.173 34.6952 110.075 33.2746 109.493 31.1689C109.245 30.2709 109.121 29.1986 109.121 27.9522L109.132 27.6968C109.14 26.5587 109.291 25.4362 109.586 24.3291C110.191 22.0918 111.347 20.5822 113.054 19.8003C113.837 19.4442 114.683 19.2661 115.591 19.2661H116.103C116.909 19.2661 117.728 19.4442 118.558 19.8003C120.14 20.4893 121.246 21.8054 121.874 23.7485C122.192 24.724 122.351 25.7846 122.351 26.9303Z" fill="white"/>
<path d="M134.128 33.7352C135.012 33.7352 135.454 34.0643 135.454 34.7223V34.9429C135.454 35.2991 135.295 35.5274 134.977 35.6281C134.659 35.7287 134.081 35.779 133.243 35.779H130.846L130.578 35.7674C127.964 35.7674 126.478 35.6474 126.122 35.4074C125.765 35.1675 125.586 34.3043 125.586 32.8179V30.9831L125.598 30.716L125.621 29.3922V27.2671L125.633 26.7445V25.4556L125.621 24.6891C125.621 24.4337 125.621 24.1782 125.621 23.9227L125.61 23.1563V22.4015L125.586 20.8802C125.586 20.2454 125.641 19.8467 125.749 19.6842C125.866 19.5138 126.129 19.4287 126.541 19.4287C126.952 19.4287 127.266 19.4945 127.483 19.6261C127.7 19.75 127.848 20.0016 127.925 20.3809C128.011 20.7603 128.053 22.8273 128.053 26.582C128.053 30.3367 128.189 32.4927 128.461 33.0501C128.608 33.352 128.934 33.5494 129.438 33.6423C129.95 33.7352 130.772 33.7817 131.905 33.7817L132.661 33.7701C132.832 33.7623 132.999 33.7585 133.162 33.7585L133.65 33.7352H134.128Z" fill="white"/>
<path d="M150 34.6647V34.8737C150 35.1757 149.763 35.3266 149.29 35.3266C148.825 35.3266 148.421 35.1331 148.08 34.746C147.746 34.3589 147.409 33.7512 147.068 32.9228C146.726 32.0945 146.474 31.6029 146.311 31.4481C145.947 31.1074 145.202 30.9371 144.077 30.9371C142.355 30.9371 141.249 31.0919 140.761 31.4016C140.466 31.5874 140.124 32.1409 139.737 33.0622C139.349 33.9835 139.128 34.4905 139.073 34.5834C138.763 35.0789 138.371 35.3266 137.898 35.3266H137.7C137.336 35.3266 137.153 35.1447 137.153 34.7808C137.153 34.4944 137.413 33.5383 137.933 31.9126C139.833 25.9592 140.943 22.5955 141.261 21.8213C141.587 21.0472 141.92 20.4472 142.262 20.0214C142.603 19.5879 143.049 19.3711 143.6 19.3711C144.158 19.3711 144.624 19.584 144.996 20.0098C145.369 20.4278 145.85 21.353 146.439 22.7852C147.564 25.5025 148.495 28.4327 149.232 31.5758C149.31 31.9009 149.457 32.439 149.674 33.1899C149.891 33.9409 150 34.4325 150 34.6647Z" fill="white"/>
<path d="M145.86 29.026V29.1074C145.86 29.3634 145.638 29.4914 145.195 29.4914L144.822 29.5146H144.636L144.543 29.5263H144.042L143.028 29.5146L142.923 29.5263H142.422C141.707 29.5263 141.35 29.4177 141.35 29.2005V29.1307C141.35 28.2465 142.018 26.2804 143.354 23.2323C143.626 22.6196 143.785 22.3132 143.832 22.3132C143.886 22.3132 144.053 22.6157 144.333 23.2207C144.613 23.8179 144.865 24.6284 145.091 25.6522C145.324 26.6682 145.46 27.2538 145.498 27.4089C145.545 27.564 145.615 27.8626 145.708 28.3047C145.809 28.739 145.86 28.9795 145.86 29.026Z" fill="#A578E1"/>
<path d="M67.7026 35.7309C67.5628 36.0257 67.2288 36.173 66.7005 36.173C66.1722 36.173 65.8537 36.0644 65.745 35.8473C65.6362 35.6224 65.5818 35.285 65.5818 34.8351C65.5818 34.3853 65.609 33.7028 65.6634 32.7876C65.7256 31.8724 65.7566 30.6547 65.7566 29.1345L65.8032 27.0637C65.8188 26.6759 65.8265 26.4044 65.8265 26.2493V25.5978C65.8265 23.938 65.6518 22.8832 65.3022 22.4334C65.0847 22.1542 64.2845 22.0145 62.9017 22.0145C62.2103 22.0145 61.7364 21.9447 61.4801 21.8051C61.2315 21.6578 61.1072 21.398 61.1072 21.0257V20.8279C61.1072 20.4323 61.484 20.1803 62.2375 20.0717C63.7057 19.8623 65.776 19.7576 68.4484 19.7576H70.7673C71.6685 19.7576 72.255 19.8157 72.5269 19.9321C72.8065 20.0484 72.9464 20.3005 72.9464 20.6883C72.9464 21.0683 72.7405 21.3437 72.3288 21.5143C72.1346 21.5918 71.5675 21.6849 70.6275 21.7935C69.6875 21.9021 69.0893 22.0921 68.833 22.3636C68.3824 22.8522 68.1571 24.1358 68.1571 26.2144L68.1454 26.8077L68.1338 27.0986L68.0988 28.8669C68.0911 29.0608 68.0872 29.2586 68.0872 29.4603L67.959 32.8923L67.9357 33.4274L67.924 34.2302C67.924 34.936 67.8502 35.4362 67.7026 35.7309Z" fill="white"/>
<path d="M87.3552 34.9528V35.1618C87.3552 35.4638 87.1186 35.6147 86.6453 35.6147C86.1799 35.6147 85.7765 35.4212 85.4351 35.0341C85.1016 34.647 84.7641 34.0393 84.4228 33.2109C84.0814 32.3826 83.8293 31.891 83.6664 31.7361C83.3018 31.3955 82.557 31.2252 81.4322 31.2252C79.71 31.2252 78.6045 31.38 78.1157 31.6897C77.821 31.8755 77.4796 32.429 77.0917 33.3503C76.7039 34.2715 76.4828 34.7786 76.4285 34.8715C76.1181 35.367 75.7264 35.6147 75.2532 35.6147H75.0553C74.6907 35.6147 74.5084 35.4328 74.5084 35.0689C74.5084 34.7825 74.7683 33.8264 75.2881 32.2006C77.1887 26.2473 78.2981 22.8836 78.6161 22.1094C78.9419 21.3352 79.2755 20.7353 79.6169 20.3095C79.9582 19.8759 80.4043 19.6592 80.9551 19.6592C81.5136 19.6592 81.9791 19.8721 82.3515 20.2979C82.7238 20.7159 83.2048 21.641 83.7944 23.0732C84.9192 25.7906 85.8502 28.7208 86.5872 31.8639C86.6647 32.189 86.8121 32.7271 87.0293 33.478C87.2466 34.229 87.3552 34.7206 87.3552 34.9528Z" fill="white"/>
<path d="M60.029 35.3461V35.5551C60.029 35.8571 59.7924 36.008 59.3192 36.008C58.8537 36.008 58.4503 35.8145 58.109 35.4274C57.7754 35.0403 57.4379 34.4326 57.0966 33.6042C56.7552 32.7759 56.5031 32.2843 56.3402 32.1295C55.9756 31.7888 55.2309 31.6185 54.106 31.6185C52.3838 31.6185 51.2783 31.7733 50.7896 32.083C50.4948 32.2688 50.1534 32.8223 49.7656 33.7436C49.3777 34.6648 49.1566 35.1719 49.1023 35.2648C48.792 35.7603 48.4002 36.008 47.927 36.008H47.7292C47.3646 36.008 47.1823 35.8261 47.1823 35.4622C47.1823 35.1758 47.4421 34.2197 47.9619 32.594C49.8625 26.6406 50.9719 23.2769 51.2899 22.5027C51.6158 21.7286 51.9494 21.1286 52.2907 20.7028C52.632 20.2693 53.0781 20.0525 53.6289 20.0525C54.1875 20.0525 54.6529 20.2654 55.0253 20.6912C55.3976 21.1092 55.8786 22.0344 56.4682 23.4666C57.5931 26.1839 58.524 29.1141 59.261 32.2572C59.3386 32.5823 59.486 33.1204 59.7032 33.8713C59.9204 34.6223 60.029 35.1139 60.029 35.3461Z" fill="white"/>
<path d="M55.8203 29.026V29.1074C55.8203 29.3634 55.5989 29.4914 55.1561 29.4914L54.7832 29.5146H54.5967L54.5035 29.5263H54.0025L52.9887 29.5146L52.8838 29.5263H52.3827C51.668 29.5263 51.3107 29.4177 51.3107 29.2005V29.1307C51.3107 28.2465 51.9788 26.2804 53.3149 23.2323C53.5868 22.6196 53.7461 22.3132 53.7927 22.3132C53.8471 22.3132 54.0141 22.6157 54.2938 23.2207C54.5734 23.8179 54.8259 24.6284 55.0512 25.6522C55.2843 26.6682 55.4202 27.2538 55.459 27.4089C55.5057 27.564 55.5756 27.8626 55.6688 28.3047C55.7698 28.739 55.8203 28.9795 55.8203 29.026Z" fill="#69C480"/>
<path d="M83.1463 29.026V29.1074C83.1463 29.3634 82.9249 29.4914 82.4821 29.4914L82.1092 29.5146H81.9228L81.8296 29.5263H81.3285L80.3147 29.5146L80.2098 29.5263H79.7088C78.9941 29.5263 78.6367 29.4177 78.6367 29.2005V29.1307C78.6367 28.2465 79.3048 26.2804 80.641 23.2323C80.9129 22.6196 81.0721 22.3132 81.1188 22.3132C81.1731 22.3132 81.3402 22.6157 81.6198 23.2207C81.8995 23.8179 82.152 24.6284 82.3773 25.6522C82.6103 26.6682 82.7463 27.2538 82.7851 27.4089C82.8317 27.564 82.9016 27.8626 82.9948 28.3047C83.0958 28.739 83.1463 28.9795 83.1463 29.026Z" fill="#F4BF4A"/>
<path d="M42.4428 28.274V27.2954C42.4428 26.4876 42.3221 25.6915 42.0807 24.9071C41.8471 24.1148 41.5433 23.4935 41.1695 23.043C40.3674 22.0644 39.2031 21.575 37.6767 21.575H37.5015C36.3801 21.575 35.7376 21.7653 35.574 22.1459C35.465 22.4022 35.4105 23.5129 35.4105 25.4779V30.9187L35.4222 31.2682C35.4222 31.3847 35.4222 31.5012 35.4222 31.6177L35.4456 32.3051L35.4806 32.9925C35.4806 33.4274 35.5663 33.7342 35.7376 33.9128C35.9167 34.0837 36.3256 34.1692 36.9642 34.1692H37.63C39.1953 34.1692 40.3752 33.6565 41.1695 32.6313C41.5355 32.1653 41.8393 31.5439 42.0807 30.7672C42.3221 29.9828 42.4428 29.1517 42.4428 28.274ZM37.0226 19.7576H37.7935C40.2233 19.7576 42.0495 20.4372 43.2722 21.7964C44.5027 23.1478 45.1179 25.0896 45.1179 27.6216V27.9012C45.1179 29.0585 44.9582 30.1964 44.6389 31.3148C44.0627 33.3342 42.8556 34.74 41.0177 35.5323C40.0364 35.9594 38.9617 36.173 37.7935 36.173H36.2633C34.9939 36.173 34.0866 36.0332 33.5415 35.7536C33.2611 35.606 33.1209 35.1672 33.1209 34.4371L33.1676 32.9226V31.6643L33.156 31.1517V29.8934L33.1443 29.3925V28.1226L33.1326 27.6216C33.1326 27.4507 33.1326 27.2799 33.1326 27.109L33.0742 24.1381C33.0742 23.8974 33.0742 23.6566 33.0742 23.4158L33.0391 22.1925L33.0275 21.9478V21.4585L33.0391 21.2255C33.0391 20.5964 33.2533 20.2158 33.6816 20.0838C34.3747 19.8663 35.4884 19.7576 37.0226 19.7576Z" fill="white"/>
</svg>
